<svg xmlns="http://www.w3.org/2000/svg" viewBox="0 0 32 32">
  <rect width="32" height="32" rx="7" fill="#25D366"/>
  <path fill="#fff" d="M16 5C9.925 5 5 9.925 5 16c0 2.01.535 3.892 1.47 5.515L5 27l5.647-1.448A10.94 10.94 0 0 0 16 27c6.075 0 11-4.925 11-11S22.075 5 16 5zm0 20c-1.738 0-3.37-.453-4.787-1.247l-.343-.2-3.354.86.882-3.26-.222-.354A8.95 8.95 0 0 1 7 16c0-4.963 4.037-9 9-9s9 4.037 9 9-4.037 9-9 9zm4.95-6.73c-.27-.135-1.6-.79-1.848-.88-.248-.09-.428-.135-.608.135-.18.27-.698.88-.856 1.06-.158.18-.315.2-.585.067-.27-.135-1.14-.42-2.17-1.34-.803-.714-1.344-1.597-1.502-1.867-.158-.27-.017-.415.119-.55.122-.12.27-.315.405-.472.135-.158.18-.27.27-.45.09-.18.045-.337-.023-.472-.067-.135-.608-1.464-.833-2.004-.22-.525-.443-.453-.608-.46l-.518-.01c-.18 0-.472.067-.72.337-.247.27-.945.924-.945 2.253s.967 2.613 1.103 2.793c.135.18 1.903 2.905 4.612 4.072.645.278 1.148.444 1.54.569.647.206 1.236.177 1.702.107.52-.078 1.6-.654 1.826-1.285.225-.63.225-1.17.158-1.285-.067-.113-.247-.18-.518-.315z"/>
</svg>
